<?xml version="1.0" encoding="UTF-8" standalone="no"?><svg xmlns="http://www.w3.org/2000/svg" xmlns:xlink="http://www.w3.org/1999/xlink" fill="#000000" height="1081.4" preserveAspectRatio="xMidYMid meet" version="1" viewBox="-0.2 -0.5 1081.4 1081.4" width="1081.4" zoomAndPan="magnify"><g id="change1_1"><path d="M536.55707,1042.82532c8.23938,8.23938,8.23938,21.59814,0,29.83752 c-8.23944,8.2395-21.59814,8.2395-29.83752,0c-8.23944-8.23938-8.23944-21.59814,0-29.83752 C514.95892,1034.58594,528.31763,1034.58594,536.55707,1042.82532z M504.2005,1011.40118 c-7.98193-7.98193-20.92322-7.98193-28.90515,0s-7.98193,20.92328,0,28.90521s20.92322,7.98193,28.90515,0 S512.18243,1019.38312,504.2005,1011.40118z M471.84393,979.97705c-7.72443-7.72443-20.24823-7.72443-27.97272,0 c-7.72443,7.72443-7.72443,20.24823,0,27.97272c7.72449,7.72443,20.24829,7.72443,27.97272,0 C479.56836,1000.22528,479.56836,987.70148,471.84393,979.97705z M439.48737,948.55292c-7.46698-7.46698-19.5733-7.46698-27.04028,0 s-7.46698,19.5733,0,27.04028s19.5733,7.46698,27.04028,0S446.95435,956.0199,439.48737,948.55292z M407.1308,917.12878 c-7.20947-7.20953-18.89838-7.20953-26.10785,0c-7.20947,7.20947-7.20947,18.89838,0,26.10785s18.89838,7.20947,26.10785,0 S414.34027,924.33826,407.1308,917.12878z M374.77423,885.70459c-6.95203-6.95197-18.22345-6.95197-25.17542,0 c-6.95203,6.95203-6.95203,18.22345,0,25.17548c6.95197,6.95197,18.22339,6.95197,25.17542,0 C381.72626,903.92804,381.72626,892.65662,374.77423,885.70459z M342.41766,854.28046c-6.69452-6.69452-17.54846-6.69452-24.24298,0 c-6.69458,6.69452-6.69458,17.54852,0,24.24304c6.69452,6.69452,17.54846,6.69452,24.24298,0 S349.11218,860.97498,342.41766,854.28046z M310.0611,822.85632c-6.43701-6.43701-16.87354-6.43701-23.31061,0 c-6.43701,6.43707-6.43701,16.87354,0,23.31061c6.43707,6.43701,16.8736,6.43701,23.31061,0 C316.49811,839.72986,316.49811,829.2934,310.0611,822.85632z M277.70453,791.43219c-6.17957-6.17957-16.19861-6.17957-22.37817,0 s-6.17957,16.19861,0,22.37817s16.19861,6.17957,22.37817,0S283.88409,797.61176,277.70453,791.43219z M223.90222,760.00806 c-5.92206,5.92206-5.92206,15.52362,0,21.44574c5.92206,5.92206,15.52368,5.92206,21.44574,0 c5.92206-5.92212,5.92206-15.52368,0-21.44574C239.4259,754.08594,229.82428,754.08594,223.90222,760.00806z M192.47809,728.58392 c-5.66461,5.66455-5.66461,14.84869,0,20.51331s14.84869,5.66461,20.51331,0s5.66461-14.84875,0-20.51331 C207.32678,722.91931,198.1427,722.91931,192.47809,728.58392z M161.05396,697.15973c-5.4071,5.40717-5.4071,14.17383,0,19.58093 s14.17377,5.4071,19.58087,0s5.4071-14.17377,0-19.58093C175.22772,691.75262,166.46106,691.75262,161.05396,697.15973z M129.62982,665.7356c-5.14966,5.14966-5.14966,13.49884,0,18.6485c5.1496,5.1496,13.49878,5.1496,18.64844,0 c5.14966-5.14966,5.14966-13.49884,0-18.6485C143.1286,660.586,134.77942,660.586,129.62982,665.7356z M98.20563,634.31146 c-4.89215,4.89215-4.89215,12.82391,0,17.71606s12.82391,4.89215,17.71606,0s4.89215-12.82391,0-17.71606 S103.09778,629.41931,98.20563,634.31146z M66.78149,602.88733c-4.63464,4.63464-4.63464,12.14893,0,16.78363 c4.6347,4.63464,12.14899,4.63464,16.78363,0c4.63464-4.6347,4.63464-12.14899,0-16.78363S71.4162,598.25269,66.78149,602.88733z M35.35736,571.4632c-4.3772,4.3772-4.3772,11.474,0,15.8512s11.474,4.3772,15.8512,0s4.3772-11.474,0-15.8512 S39.73456,567.086,35.35736,571.4632z M3.93323,540.03906c-4.11969,4.11969-4.11969,10.79907,0,14.91876 s10.79907,4.11969,14.91876,0s4.11969-10.79907,0-14.91876C14.7323,535.91931,8.05292,535.91931,3.93323,540.03906z M540.24414,1009.30066c-8.23938,8.23944-8.23938,21.59814,0,29.83752c8.23944,8.2395,21.59814,8.2395,29.83759,0 c8.23938-8.23938,8.23938-21.59808,0-29.83752C561.84229,1001.06128,548.48358,1001.06128,540.24414,1009.30066z M537.72516,1006.78168c7.98193-7.98193,7.98193-20.92322,0-28.90515s-20.92322-7.98193-28.90515,0s-7.98193,20.92322,0,28.90515 S529.74323,1014.76361,537.72516,1006.78168z M505.36859,974.42511c7.72443-7.72443,7.72443-20.24829,0-27.97272 c-7.72449-7.72443-20.24829-7.72443-27.97272,0s-7.72443,20.24829,0,27.97272S497.6441,982.14954,505.36859,974.42511z M473.01202,942.06854c7.46698-7.46698,7.46698-19.5733,0-27.04028s-19.5733-7.46698-27.04028,0s-7.46698,19.5733,0,27.04028 S465.54504,949.53552,473.01202,942.06854z M440.65546,909.71198c7.20947-7.20947,7.20947-18.89838,0-26.10785 s-18.89838-7.20947-26.10785,0s-7.20947,18.89838,0,26.10785S433.44598,916.92145,440.65546,909.71198z M408.29889,877.35541 c6.95197-6.95203,6.95197-18.22345,0-25.17542c-6.95203-6.95203-18.22345-6.95203-25.17542,0 c-6.95203,6.95197-6.95203,18.22339,0,25.17542C390.07544,884.30743,401.34686,884.30743,408.29889,877.35541z M375.94232,844.99884 c6.69452-6.69452,6.69452-17.54846,0-24.24304c-6.69452-6.69452-17.54852-6.69452-24.24304,0 c-6.69452,6.69458-6.69452,17.54852,0,24.24304S369.2478,851.69336,375.94232,844.99884z M343.58575,812.64227 c6.43701-6.43707,6.43701-16.87354,0-23.31061c-6.43707-6.43701-16.87354-6.43701-23.31061,0 c-6.43701,6.43707-6.43701,16.87354,0,23.31061C326.71222,819.07928,337.14868,819.07928,343.58575,812.64227z M311.22919,780.28571 c6.17957-6.17957,6.17957-16.19861,0-22.37817s-16.19861-6.17957-22.37817,0s-6.17957,16.19861,0,22.37817 S305.04962,786.46527,311.22919,780.28571z M257.42688,726.4834c-5.92206,5.92206-5.92206,15.52368,0,21.44574 s15.52368,5.92206,21.44574,0s5.92206-15.52368,0-21.44574S263.34894,720.56134,257.42688,726.4834z M226.00275,695.05927 c-5.66461,5.66461-5.66461,14.84869,0,20.51331c5.66455,5.66461,14.84869,5.66461,20.51331,0s5.66461-14.84869,0-20.51331 S231.6673,689.39465,226.00275,695.05927z M194.57861,663.63513c-5.40717,5.4071-5.40717,14.17377,0,19.58087 c5.4071,5.4071,14.17377,5.4071,19.58087,0s5.4071-14.17377,0-19.58087 C208.75238,658.22797,199.98572,658.22797,194.57861,663.63513z M163.15442,632.21094c-5.1496,5.14966-5.1496,13.49884,0,18.6485 c5.14966,5.14966,13.49884,5.14966,18.6485,0c5.1496-5.14966,5.1496-13.49884,0-18.6485 C176.65326,627.06134,168.30408,627.06134,163.15442,632.21094z M131.73029,600.7868c-4.89215,4.89215-4.89215,12.82391,0,17.71606 s12.82391,4.89215,17.71606,0s4.89215-12.82391,0-17.71606S136.62244,595.89465,131.73029,600.7868z M100.30615,569.36267 c-4.63464,4.6347-4.63464,12.14899,0,16.78363s12.14893,4.63464,16.78363,0c4.63464-4.63464,4.63464-12.14893,0-16.78363 C112.45508,564.72803,104.9408,564.72803,100.30615,569.36267z M68.88202,537.93854c-4.3772,4.3772-4.3772,11.474,0,15.8512 s11.474,4.3772,15.8512,0s4.3772-11.474,0-15.8512S73.25922,533.56134,68.88202,537.93854z M37.45789,506.5144 c-4.11975,4.11969-4.11975,10.79907,0,14.91876c4.11969,4.11969,10.79907,4.11969,14.91876,0s4.11969-10.79907,0-14.91876 S41.57758,502.39471,37.45789,506.5144z M573.7688,975.77606c-8.23938,8.23938-8.23938,21.59808,0,29.83752 c8.23944,8.23944,21.59814,8.23944,29.83759,0c8.23938-8.23944,8.23938-21.59814,0-29.83752 C595.36694,967.53662,582.00824,967.53662,573.7688,975.77606z M571.24982,973.25702c7.98193-7.98193,7.98193-20.92322,0-28.90515 c-7.98193-7.98187-20.92322-7.98187-28.90515,0c-7.98193,7.98193-7.98193,20.92322,0,28.90515 S563.26788,981.23895,571.24982,973.25702z M538.89325,940.90045c7.72443-7.72443,7.72443-20.24823,0-27.97272 c-7.72449-7.72443-20.24829-7.72443-27.97272,0c-7.72443,7.72449-7.72443,20.24829,0,27.97272 S531.16876,948.62488,538.89325,940.90045z M506.53668,908.54388c7.46692-7.46698,7.46692-19.5733,0-27.04028 c-7.46698-7.46698-19.5733-7.46698-27.04028,0s-7.46698,19.5733,0,27.04028S499.0697,916.01086,506.53668,908.54388z M474.18011,876.18732c7.20947-7.20947,7.20947-18.89838,0-26.10785c-7.20953-7.20947-18.89838-7.20947-26.10785,0 c-7.20953,7.20947-7.20953,18.89838,0,26.10785C455.28174,883.39679,466.97058,883.39679,474.18011,876.18732z M441.82355,843.83075 c6.95197-6.95203,6.95197-18.22345,0-25.17542c-6.95203-6.95203-18.22345-6.95203-25.17548,0 c-6.95197,6.95197-6.95197,18.22339,0,25.17542C423.6001,850.78278,434.87152,850.78278,441.82355,843.83075z M409.46698,811.47418 c6.69452-6.69452,6.69452-17.54846,0-24.24298s-17.54852-6.69452-24.24304,0s-6.69452,17.54846,0,24.24298 S402.77246,818.1687,409.46698,811.47418z M353.7998,755.80701c-6.43701,6.43707-6.43701,16.8736,0,23.31061 c6.43707,6.43707,16.87354,6.43707,23.31061,0c6.43701-6.43701,6.43701-16.87354,0-23.31061 C370.67334,749.37,360.23688,749.37,353.7998,755.80701z M322.37567,746.76105c6.17957,6.17957,16.19861,6.17957,22.37817,0 s6.17957-16.19861,0-22.37817s-16.19861-6.17957-22.37817,0S316.19611,740.58148,322.37567,746.76105z M290.95154,714.40448 c5.92206,5.92206,15.52362,5.92206,21.44574,0c5.92206-5.92206,5.92206-15.52368,0-21.44574 c-5.92212-5.92206-15.52368-5.92206-21.44574,0C285.02942,698.8808,285.02942,708.48242,290.95154,714.40448z M280.04071,661.53461 c-5.66461-5.66461-14.84875-5.66461-20.51331,0c-5.66461,5.66461-5.66461,14.84869,0,20.51331 c5.66455,5.66461,14.84869,5.66461,20.51331,0C285.70526,676.3833,285.70526,667.19922,280.04071,661.53461z M247.68414,649.69135 c5.4071-5.4071,5.4071-14.17377,0-19.58087s-14.17377-5.4071-19.58093,0c-5.4071,5.4071-5.4071,14.17377,0,19.58087 C233.51038,655.09845,242.27704,655.09845,247.68414,649.69135z M196.67908,598.68634c-5.1496,5.1496-5.1496,13.49884,0,18.64844 c5.14966,5.14966,13.49884,5.14966,18.6485,0c5.1496-5.1496,5.1496-13.49884,0-18.64844 C210.17792,593.53668,201.82874,593.53668,196.67908,598.68634z M165.25494,567.26215c-4.89215,4.89215-4.89215,12.82391,0,17.71606 s12.82391,4.89215,17.71606,0s4.89215-12.82391,0-17.71606S170.14709,562.37,165.25494,567.26215z M133.83081,535.83801 c-4.6347,4.6347-4.6347,12.14899,0,16.78363c4.63464,4.6347,12.14893,4.6347,16.78363,0 c4.63464-4.63464,4.63464-12.14893,0-16.78363C145.97974,531.20337,138.46545,531.20337,133.83081,535.83801z M102.40668,504.41388 c-4.3772,4.3772-4.3772,11.474,0,15.8512s11.474,4.3772,15.8512,0s4.3772-11.474,0-15.8512S106.78387,500.03668,102.40668,504.41388 z M70.98254,472.98975c-4.11975,4.11969-4.11975,10.79907,0,14.91876c4.11969,4.11969,10.79901,4.11969,14.91876,0 c4.11969-4.11969,4.11969-10.79907,0-14.91876C81.78156,468.87006,75.10223,468.87006,70.98254,472.98975z M607.29346,942.2514 c-8.23938,8.23938-8.23938,21.59814,0,29.83752c8.23944,8.23944,21.59814,8.23944,29.83759,0 c8.23938-8.23938,8.23938-21.59814,0-29.83752C628.8916,934.01196,615.5329,934.01196,607.29346,942.2514z M604.77448,939.73236 c7.98187-7.98193,7.98187-20.92316,0-28.90509c-7.98193-7.98193-20.92322-7.98193-28.90515,0s-7.98193,20.92316,0,28.90509 S596.79254,947.71429,604.77448,939.73236z M572.41791,907.37579c7.72443-7.72443,7.72443-20.24823,0-27.97272 c-7.72449-7.72443-20.24829-7.72443-27.97272,0c-7.72449,7.72449-7.72449,20.24829,0,27.97272 C552.16962,915.10028,564.69342,915.10028,572.41791,907.37579z M540.06134,875.01923c7.46692-7.46698,7.46692-19.5733,0-27.04028 c-7.46698-7.46698-19.57336-7.46698-27.04028,0c-7.46698,7.46698-7.46698,19.5733,0,27.04028 C520.48798,882.48621,532.59436,882.48621,540.06134,875.01923z M507.70477,842.66266c7.20947-7.20947,7.20947-18.89838,0-26.10785 c-7.20953-7.20947-18.89838-7.20947-26.10791,0c-7.20947,7.20947-7.20947,18.89838,0,26.10785 C488.8064,849.87213,500.49524,849.87213,507.70477,842.66266z M450.17273,785.13068c-6.95197,6.95203-6.95197,18.22345,0,25.17542 c6.95203,6.95203,18.22345,6.95203,25.17548,0c6.95197-6.95197,6.95197-18.22339,0-25.17542 C468.39618,778.17865,457.12476,778.17865,450.17273,785.13068z M418.7486,777.94952c6.69452,6.69452,17.54852,6.69452,24.24304,0 s6.69452-17.54846,0-24.24298s-17.54852-6.69452-24.24304,0S412.05408,771.255,418.7486,777.94952z M387.32446,722.28241 c-6.43707,6.43701-6.43707,16.87354,0,23.31055c6.43701,6.43707,16.87354,6.43707,23.31061,0 c6.43701-6.43701,6.43701-16.87354,0-23.31055C404.198,715.84534,393.76147,715.84534,387.32446,722.28241z M355.90033,713.23639 c6.17957,6.17957,16.19861,6.17957,22.37817,0c6.1795-6.17957,6.1795-16.19861,0-22.37817 c-6.17957-6.1795-16.19861-6.1795-22.37817,0C349.72076,697.03778,349.72076,707.05682,355.90033,713.23639z M324.4762,680.87982 c5.92206,5.92212,15.52362,5.92212,21.44574,0c5.92206-5.92206,5.92206-15.52362,0-21.44574 c-5.92212-5.92206-15.52368-5.92206-21.44574,0C318.55408,665.3562,318.55408,674.95776,324.4762,680.87982z M293.052,628.00995 c-5.66455,5.66461-5.66455,14.84869,0,20.51331c5.66461,5.66461,14.84875,5.66461,20.51337,0 c5.66455-5.66461,5.66455-14.84869,0-20.51331C307.90076,622.34534,298.71661,622.34534,293.052,628.00995z M281.2088,616.16669 c5.4071-5.4071,5.4071-14.17377,0-19.58087c-5.40717-5.4071-14.17383-5.4071-19.58093,0s-5.4071,14.17377,0,19.58087 S275.80164,621.57379,281.2088,616.16669z M248.85223,583.81012c5.1496-5.1496,5.1496-13.49884,0-18.64844 c-5.14966-5.14966-13.49884-5.14966-18.6485,0c-5.1496,5.1496-5.1496,13.49884,0,18.64844 C235.35339,588.95978,243.70258,588.95978,248.85223,583.81012z M216.49567,551.45355c4.89215-4.89215,4.89215-12.82385,0-17.716 s-12.82391-4.89215-17.71606,0s-4.89215,12.82385,0,17.716S211.60352,556.3457,216.49567,551.45355z M167.35547,502.31335 c-4.6347,4.6347-4.6347,12.14899,0,16.78363c4.63464,4.6347,12.14893,4.6347,16.78363,0 c4.63464-4.63464,4.63464-12.14893,0-16.78363C179.50439,497.67871,171.99011,497.67871,167.35547,502.31335z M135.93134,470.88922 c-4.3772,4.3772-4.3772,11.474,0,15.8512c4.37714,4.3772,11.474,4.3772,15.8512,0c4.37714-4.3772,4.37714-11.474,0-15.8512 C147.40533,466.51202,140.30847,466.51202,135.93134,470.88922z M104.50714,439.46509c-4.11969,4.11969-4.11969,10.79907,0,14.91876 c4.11975,4.11975,10.79907,4.11975,14.91882,0c4.11969-4.11969,4.11969-10.79907,0-14.91876 C115.30621,435.3454,108.62689,435.3454,104.50714,439.46509z M640.81812,908.72675c-8.23944,8.23938-8.23944,21.59814,0,29.83752 c8.23938,8.23944,21.59814,8.23944,29.83752,0c8.23944-8.23938,8.23944-21.59814,0-29.83752 C662.41626,900.4873,649.0575,900.4873,640.81812,908.72675z M638.29907,906.2077c7.98193-7.98193,7.98193-20.92316,0-28.90509 s-20.92316-7.98193-28.90509,0s-7.98193,20.92316,0,28.90509S630.31714,914.18964,638.29907,906.2077z M605.9425,873.85114 c7.72449-7.72443,7.72449-20.24823,0-27.97266c-7.72443-7.72449-20.24823-7.72449-27.97266,0 c-7.72449,7.72443-7.72449,20.24823,0,27.97266C585.69427,881.57562,598.21808,881.57562,605.9425,873.85114z M573.58594,841.49457 c7.46698-7.46692,7.46698-19.5733,0-27.04028c-7.46692-7.46692-19.5733-7.46692-27.04028,0 c-7.46692,7.46698-7.46692,19.57336,0,27.04028C554.01263,848.96155,566.11902,848.96155,573.58594,841.49457z M515.12152,783.03015 c-7.20947,7.20947-7.20947,18.89838,0,26.10785c7.20953,7.20953,18.89838,7.20953,26.10785,0 c7.20953-7.20947,7.20953-18.89838,0-26.10785C534.0199,775.82068,522.33105,775.82068,515.12152,783.03015z M483.69739,751.60602 c-6.95197,6.95203-6.95197,18.22345,0,25.17542c6.95203,6.95203,18.22345,6.95203,25.17542,0 c6.95203-6.95197,6.95203-18.22339,0-25.17542C501.92084,744.65399,490.64941,744.65399,483.69739,751.60602z M452.27325,744.42487 c6.69452,6.69452,17.54846,6.69452,24.24298,0s6.69452-17.54846,0-24.24298s-17.54846-6.69452-24.24298,0 S445.57874,737.73035,452.27325,744.42487z M420.84912,688.75775c-6.43707,6.43701-6.43707,16.87354,0,23.31055 c6.43701,6.43707,16.87354,6.43707,23.31055,0c6.43707-6.43701,6.43707-16.87354,0-23.31055 C437.72266,682.32068,427.28613,682.32068,420.84912,688.75775z M389.42499,679.71173c6.17957,6.17957,16.19861,6.17957,22.37811,0 c6.17957-6.17957,6.17957-16.19861,0-22.37811c-6.1795-6.17957-16.19855-6.17957-22.37811,0 C383.24542,663.51312,383.24542,673.53217,389.42499,679.71173z M358.00079,647.35516c5.92212,5.92212,15.52368,5.92212,21.44574,0 c5.92212-5.92206,5.92212-15.52362,0-21.44574c-5.92206-5.92206-15.52362-5.92206-21.44574,0 C352.07874,631.83154,352.07874,641.43311,358.00079,647.35516z M326.57666,594.48529c-5.66455,5.66461-5.66455,14.84875,0,20.51331 c5.66461,5.66461,14.84875,5.66461,20.51331,0c5.66461-5.66455,5.66461-14.84869,0-20.51331 C341.42542,588.82068,332.24127,588.82068,326.57666,594.48529z M314.7334,582.64203c5.40717-5.4071,5.40717-14.17377,0-19.58087 c-5.4071-5.4071-14.17377-5.4071-19.58087,0s-5.4071,14.17377,0,19.58087 C300.55963,588.04919,309.32629,588.04919,314.7334,582.64203z M282.37683,550.28546c5.14966-5.1496,5.14966-13.49884,0-18.64844 c-5.1496-5.14966-13.49878-5.14966-18.64844,0c-5.14966,5.1496-5.14966,13.49884,0,18.64844 C268.87805,555.43512,277.22723,555.43512,282.37683,550.28546z M250.02026,517.92889c4.89215-4.89215,4.89215-12.82385,0-17.716 s-12.82385-4.89215-17.716,0s-4.89215,12.82385,0,17.716S245.12811,522.82104,250.02026,517.92889z M217.6637,485.57233 c4.6347-4.63464,4.6347-12.14893,0-16.78357c-4.63464-4.6347-12.14893-4.6347-16.78357,0 c-4.6347,4.63464-4.6347,12.14893,0,16.78357C205.51477,490.20703,213.02905,490.20703,217.6637,485.57233z M185.30713,453.21576 c4.3772-4.37714,4.3772-11.474,0-15.8512c-4.37714-4.37714-11.474-4.37714-15.8512,0c-4.37714,4.3772-4.37714,11.47406,0,15.8512 C173.83313,457.59296,180.92999,457.59296,185.30713,453.21576z M138.0318,405.94043c-4.11969,4.11969-4.11969,10.79907,0,14.91876 c4.11975,4.11975,10.79907,4.11975,14.91876,0c4.11975-4.11969,4.11975-10.79907,0-14.91876 C148.83087,401.82074,142.15155,401.82074,138.0318,405.94043z M674.34277,875.20209c-8.23944,8.23944-8.23944,21.59814,0,29.83752 c8.23938,8.23944,21.59814,8.23944,29.83752,0c8.23944-8.23938,8.23944-21.59808,0-29.83752 C695.94092,866.96271,682.58215,866.96271,674.34277,875.20209z M671.82373,872.68304c7.98193-7.98193,7.98193-20.92316,0-28.90509 s-20.92316-7.98193-28.90509,0s-7.98193,20.92316,0,28.90509S663.8418,880.66498,671.82373,872.68304z M639.46716,840.32648 c7.72449-7.72443,7.72449-20.24823,0-27.97266c-7.72443-7.72449-20.24823-7.72449-27.97272,0 c-7.72443,7.72443-7.72443,20.24823,0,27.97266C619.21893,848.05096,631.74274,848.05096,639.46716,840.32648z M607.1106,807.96991 c7.46698-7.46692,7.46698-19.5733,0-27.04022c-7.46698-7.46698-19.5733-7.46698-27.04028,0 c-7.46692,7.46692-7.46692,19.5733,0,27.04022C587.53729,815.43689,599.64362,815.43689,607.1106,807.96991z M574.75403,775.61334 c7.20947-7.20947,7.20947-18.89832,0-26.10785c-7.20947-7.20947-18.89838-7.20947-26.10785,0 c-7.20947,7.20953-7.20947,18.89838,0,26.10785C555.85565,782.82288,567.54456,782.82288,574.75403,775.61334z M517.22205,718.08136 c-6.95203,6.95203-6.95203,18.22345,0,25.17542c6.95203,6.95203,18.22345,6.95203,25.17542,0 c6.95203-6.95197,6.95203-18.22339,0-25.17542C535.4455,711.12939,524.17407,711.12939,517.22205,718.08136z M485.79791,710.90021 c6.69452,6.69458,17.54846,6.69458,24.24298,0c6.69452-6.69452,6.69452-17.54846,0-24.24298s-17.54846-6.69452-24.24298,0 S479.10339,704.20569,485.79791,710.90021z M454.37378,655.23309c-6.43707,6.43701-6.43707,16.87354,0,23.31055 c6.43701,6.43707,16.87354,6.43707,23.31055,0c6.43707-6.43701,6.43707-16.87354,0-23.31055 C471.24731,648.79602,460.81079,648.79602,454.37378,655.23309z M422.94958,646.18707c6.17957,6.17957,16.19861,6.17957,22.37817,0 c6.17957-6.1795,6.17957-16.19855,0-22.37811s-16.19861-6.17957-22.37817,0 C416.77008,629.98853,416.77008,640.00757,422.94958,646.18707z M391.52545,613.83051c5.92212,5.92212,15.52368,5.92212,21.44574,0 c5.92212-5.92206,5.92212-15.52362,0-21.44568c-5.92206-5.92212-15.52362-5.92212-21.44574,0 C385.60339,598.30688,385.60339,607.90845,391.52545,613.83051z M360.10132,560.96063c-5.66461,5.66461-5.66461,14.84875,0,20.51331 c5.66461,5.66461,14.84875,5.66461,20.51331,0c5.66461-5.66455,5.66461-14.84869,0-20.51331 C374.95007,555.29608,365.76593,555.29608,360.10132,560.96063z M348.25806,549.11737c5.4071-5.4071,5.4071-14.17377,0-19.58087 s-14.17377-5.4071-19.58087,0s-5.4071,14.17377,0,19.58087C334.08429,554.52454,342.85095,554.52454,348.25806,549.11737z M315.90149,516.76086c5.14966-5.14966,5.14966-13.49884,0-18.6485c-5.1496-5.14966-13.49884-5.14966-18.64844,0 c-5.14966,5.14966-5.14966,13.49884,0,18.6485C302.40265,521.91046,310.75189,521.91046,315.90149,516.76086z M283.54492,484.4043 c4.89215-4.89215,4.89215-12.82391,0-17.71606s-12.82385-4.89215-17.716,0s-4.89215,12.82391,0,17.71606 S278.65277,489.29645,283.54492,484.4043z M251.18835,452.04773c4.6347-4.6347,4.6347-12.14899,0-16.78363 c-4.63464-4.6347-12.14893-4.6347-16.78363,0c-4.63464,4.63464-4.63464,12.14893,0,16.78363 C239.03943,456.68237,246.55371,456.68237,251.18835,452.04773z M218.83179,419.69116c4.3772-4.3772,4.3772-11.47406,0-15.85126 c-4.3772-4.37714-11.474-4.37714-15.8512,0c-4.3772,4.3772-4.3772,11.47406,0,15.85126 C207.35779,424.0683,214.45459,424.0683,218.83179,419.69116z M186.47522,387.33459c4.11975-4.11975,4.11975-10.79907,0-14.91882 c-4.11969-4.11969-10.79907-4.11969-14.91876,0c-4.11969,4.11975-4.11969,10.79907,0,14.91882 C175.67615,391.45428,182.35553,391.45428,186.47522,387.33459z M707.86743,841.67743c-8.23944,8.23944-8.23944,21.59814,0,29.83759 c8.23938,8.23938,21.59814,8.23938,29.83752,0c8.23944-8.23944,8.23944-21.59814,0-29.83759 C729.46558,833.43805,716.10681,833.43805,707.86743,841.67743z M705.34839,839.15845c7.98193-7.98193,7.98193-20.92322,0-28.90515 s-20.92322-7.98193-28.90509,0c-7.98193,7.98193-7.98193,20.92322,0,28.90515 C684.42517,847.14038,697.36646,847.14038,705.34839,839.15845z M672.99182,806.80188c7.72443-7.72449,7.72443-20.24829,0-27.97272 c-7.72443-7.72449-20.24823-7.72449-27.97272,0c-7.72443,7.72443-7.72443,20.24823,0,27.97272 C652.74359,814.52631,665.2674,814.52631,672.99182,806.80188z M640.63525,774.44531c7.46698-7.46698,7.46698-19.57336,0-27.04028 c-7.46698-7.46698-19.5733-7.46698-27.04028,0c-7.46698,7.46692-7.46698,19.5733,0,27.04028 C621.06195,781.91223,633.16827,781.91223,640.63525,774.44531z M608.27869,742.08875c7.20947-7.20953,7.20947-18.89838,0-26.10791 c-7.20947-7.20947-18.89838-7.20947-26.10785,0c-7.20947,7.20953-7.20947,18.89838,0,26.10791 C589.38031,749.29822,601.06921,749.29822,608.27869,742.08875z M550.7467,684.5567c-6.95203,6.95203-6.95203,18.22345,0,25.17548 c6.95197,6.95197,18.22339,6.95197,25.17542,0c6.95203-6.95203,6.95203-18.22345,0-25.17548 C568.97009,677.60474,557.69867,677.60474,550.7467,684.5567z M519.32257,677.37561c6.69452,6.69452,17.54846,6.69452,24.24298,0 s6.69452-17.54852,0-24.24304s-17.54846-6.69452-24.24298,0S512.62805,670.68109,519.32257,677.37561z M487.89844,621.70844 c-6.43707,6.43701-6.43707,16.87354,0,23.31061c6.43701,6.43701,16.87354,6.43701,23.31055,0 c6.43707-6.43707,6.43707-16.8736,0-23.31061C504.77197,615.27142,494.33545,615.27142,487.89844,621.70844z M456.47424,612.66248 c6.17957,6.17957,16.19861,6.17957,22.37817,0s6.17957-16.19861,0-22.37817s-16.19861-6.17957-22.37817,0 S450.29468,606.48291,456.47424,612.66248z M425.05011,580.30591c5.92206,5.92206,15.52368,5.92206,21.44574,0 c5.92206-5.92212,5.92206-15.52368,0-21.44574c-5.92206-5.92212-15.52368-5.92212-21.44574,0 C419.12805,564.78223,419.12805,574.38379,425.05011,580.30591z M393.62598,527.43597c-5.66461,5.66461-5.66461,14.84875,0,20.51337 c5.66461,5.66455,14.84869,5.66455,20.51331,0c5.66461-5.66461,5.66461-14.84875,0-20.51337 C408.47467,521.77142,399.29059,521.77142,393.62598,527.43597z M381.78271,515.59277c5.4071-5.40717,5.4071-14.17383,0-19.58093 s-14.17377-5.4071-19.58087,0s-5.4071,14.17377,0,19.58093C367.60895,520.99988,376.37561,520.99988,381.78271,515.59277z M349.42615,483.23621c5.14966-5.14966,5.14966-13.49884,0-18.6485c-5.1496-5.1496-13.49884-5.1496-18.64844,0 c-5.14966,5.14966-5.14966,13.49884,0,18.6485C335.92731,488.3858,344.27655,488.3858,349.42615,483.23621z M317.06958,450.87964 c4.89215-4.89215,4.89215-12.82391,0-17.71606s-12.82391-4.89215-17.71606,0c-4.89209,4.89215-4.89209,12.82391,0,17.71606 C304.24567,455.77179,312.17743,455.77179,317.06958,450.87964z M284.71301,418.52307c4.6347-4.6347,4.6347-12.14899,0-16.78363 c-4.63464-4.6347-12.14893-4.6347-16.78363,0c-4.63464,4.63464-4.63464,12.14893,0,16.78363 C272.56409,423.15771,280.07837,423.15771,284.71301,418.52307z M252.35645,386.1665c4.3772-4.3772,4.3772-11.47406,0-15.8512 c-4.3772-4.3772-11.474-4.3772-15.8512,0c-4.3772,4.37714-4.3772,11.474,0,15.8512 C240.88245,390.54364,247.97925,390.54364,252.35645,386.1665z M219.99988,353.80994c4.11969-4.11975,4.11969-10.79907,0-14.91882 c-4.11969-4.11969-10.79907-4.11969-14.91876,0c-4.11969,4.11975-4.11969,10.79907,0,14.91882 C209.20081,357.92963,215.88019,357.92963,219.99988,353.80994z M741.39209,808.15277c-8.23944,8.23944-8.23944,21.59814,0,29.83759 c8.23938,8.23938,21.59808,8.23938,29.83752,0c8.23938-8.23944,8.23938-21.59814,0-29.83759 C762.99017,799.91339,749.63147,799.91339,741.39209,808.15277z M738.87305,805.63379c7.98193-7.98193,7.98193-20.92322,0-28.90515 s-20.92322-7.98193-28.90515,0s-7.98193,20.92322,0,28.90515S730.89111,813.61572,738.87305,805.63379z M706.51648,773.27722 c7.72443-7.72449,7.72443-20.24829,0-27.97272s-20.24823-7.72443-27.97272,0c-7.72443,7.72443-7.72443,20.24823,0,27.97272 C686.26825,781.00165,698.79205,781.00165,706.51648,773.27722z M674.15991,740.92065c7.46698-7.46698,7.46698-19.5733,0-27.04028 s-19.5733-7.46698-27.04028,0s-7.46698,19.5733,0,27.04028S666.69293,748.38763,674.15991,740.92065z M641.80334,708.56409 c7.20947-7.20947,7.20947-18.89838,0-26.10785c-7.20947-7.20953-18.89838-7.20953-26.10785,0 c-7.20947,7.20947-7.20947,18.89838,0,26.10785S634.59387,715.77356,641.80334,708.56409z M584.27136,651.03204 c-6.95203,6.95203-6.95203,18.22345,0,25.17548c6.95197,6.95197,18.22339,6.95197,25.17542,0 c6.95203-6.95203,6.95203-18.22345,0-25.17548C602.49475,644.08008,591.22333,644.08008,584.27136,651.03204z M552.84723,643.85095 c6.69452,6.69452,17.54846,6.69452,24.24298,0s6.69452-17.54852,0-24.24304s-17.54846-6.69452-24.24298,0 C546.15265,626.30243,546.15265,637.15643,552.84723,643.85095z M521.42303,588.18378c-6.43701,6.43707-6.43701,16.87354,0,23.31061 c6.43707,6.43701,16.8736,6.43701,23.31061,0c6.43701-6.43707,6.43701-16.87354,0-23.31061 C538.29663,581.74677,527.86011,581.74677,521.42303,588.18378z M489.9989,579.13782c6.17957,6.17957,16.19861,6.17957,22.37817,0 s6.17957-16.19861,0-22.37817s-16.19861-6.17957-22.37817,0S483.81934,572.95825,489.9989,579.13782z M458.57477,546.78125 c5.92206,5.92206,15.52368,5.92206,21.44574,0c5.92206-5.92212,5.92206-15.52368,0-21.44574 c-5.92206-5.92212-15.52368-5.92212-21.44574,0C452.65271,531.25757,452.65271,540.85913,458.57477,546.78125z M427.15063,493.91138 c-5.66461,5.66455-5.66461,14.84869,0,20.51331s14.84869,5.66461,20.51331,0s5.66461-14.84875,0-20.51331 C441.99933,488.24677,432.81525,488.24677,427.15063,493.91138z M415.30737,482.06812c5.4071-5.4071,5.4071-14.17377,0-19.58093 c-5.4071-5.4071-14.17377-5.4071-19.58087,0c-5.4071,5.40717-5.4071,14.17383,0,19.58093S409.90027,487.47522,415.30737,482.06812z M382.95081,449.71155c5.14966-5.14966,5.14966-13.49884,0-18.6485c-5.14966-5.1496-13.49884-5.1496-18.64844,0 c-5.14966,5.14966-5.14966,13.49884,0,18.6485C369.45197,454.86115,377.80115,454.86115,382.95081,449.71155z M350.59424,417.35498 c4.89215-4.89215,4.89215-12.82391,0-17.71606s-12.82391-4.89215-17.71606,0s-4.89215,12.82391,0,17.71606 S345.70209,422.24713,350.59424,417.35498z M318.23767,384.99841c4.63464-4.6347,4.63464-12.14899,0-16.78363 s-12.14893-4.63464-16.78363,0c-4.63464,4.63464-4.63464,12.14893,0,16.78363 C306.08875,389.63306,313.60303,389.63306,318.23767,384.99841z M285.8811,352.64185c4.3772-4.3772,4.3772-11.474,0-15.8512 s-11.474-4.3772-15.8512,0s-4.3772,11.474,0,15.8512S281.50391,357.01904,285.8811,352.64185z M253.52454,320.28528 c4.11969-4.11969,4.11969-10.79907,0-14.91876c-4.11969-4.11975-10.79907-4.11975-14.91876,0 c-4.11969,4.11969-4.11969,10.79907,0,14.91876S249.40485,324.40497,253.52454,320.28528z M774.91669,774.62811 c-8.23938,8.23944-8.23938,21.59814,0,29.83759c8.23944,8.23938,21.59814,8.23938,29.83759,0 c8.23938-8.23944,8.23938-21.59814,0-29.83759C796.51483,766.38873,783.15613,766.38873,774.91669,774.62811z M772.39771,772.10913 c7.98193-7.98193,7.98193-20.92322,0-28.90515s-20.92322-7.98193-28.90515,0s-7.98193,20.92322,0,28.90515 S764.41577,780.09106,772.39771,772.10913z M740.04114,739.75256c7.72443-7.72443,7.72443-20.24829,0-27.97272 c-7.72449-7.72443-20.24829-7.72443-27.97272,0s-7.72443,20.24829,0,27.97272S732.31665,747.47699,740.04114,739.75256z M707.68457,707.396c7.46698-7.46698,7.46698-19.5733,0-27.04028s-19.5733-7.46698-27.04028,0s-7.46698,19.5733,0,27.04028 S700.21759,714.86298,707.68457,707.396z M675.328,675.03943c7.20947-7.20947,7.20947-18.89838,0-26.10785 s-18.89838-7.20947-26.10785,0s-7.20947,18.89838,0,26.10785S668.11853,682.2489,675.328,675.03943z M617.79602,617.50745 c-6.95203,6.95197-6.95203,18.22339,0,25.17542c6.95197,6.95203,18.22339,6.95203,25.17542,0 c6.95197-6.95203,6.95197-18.22345,0-25.17542C636.01941,610.55542,624.74799,610.55542,617.79602,617.50745z M586.37183,610.32629 c6.69452,6.69452,17.54852,6.69452,24.24304,0s6.69452-17.54852,0-24.24304s-17.54852-6.69452-24.24304,0 S579.67731,603.63177,586.37183,610.32629z M554.94769,554.65912c-6.43701,6.43707-6.43701,16.87354,0,23.31061 c6.43707,6.43701,16.87354,6.43701,23.31061,0c6.43701-6.43707,6.43701-16.87354,0-23.31061 C571.82123,548.22211,561.38477,548.22211,554.94769,554.65912z M523.52356,545.61316c6.17957,6.17957,16.19861,6.17957,22.37817,0 s6.17957-16.19861,0-22.37817s-16.19861-6.17957-22.37817,0S517.34399,539.43359,523.52356,545.61316z M492.09943,513.25659 c5.92206,5.92206,15.52368,5.92206,21.44574,0s5.92206-15.52368,0-21.44574s-15.52368-5.92206-21.44574,0 S486.17737,507.33453,492.09943,513.25659z M460.67529,460.38672c-5.66461,5.66455-5.66461,14.84869,0,20.51331 c5.66455,5.66461,14.84869,5.66461,20.51331,0s5.66461-14.84875,0-20.51331 C475.52399,454.72211,466.33984,454.72211,460.67529,460.38672z M448.83203,448.54346c5.4071-5.4071,5.4071-14.17377,0-19.58087 c-5.4071-5.40717-14.17377-5.40717-19.58087,0c-5.40717,5.4071-5.40717,14.17377,0,19.58087 C434.65826,453.95056,443.42493,453.95056,448.83203,448.54346z M416.47546,416.18689c5.1496-5.14966,5.1496-13.49884,0-18.6485 c-5.14966-5.1496-13.49884-5.1496-18.6485,0c-5.1496,5.14966-5.1496,13.49884,0,18.6485 C402.97662,421.33649,411.32581,421.33649,416.47546,416.18689z M384.1189,383.83032c4.89215-4.89215,4.89215-12.82391,0-17.71606 s-12.82391-4.89215-17.71606,0s-4.89215,12.82391,0,17.71606S379.22675,388.72247,384.1189,383.83032z M351.76233,351.47375 c4.63464-4.63464,4.63464-12.14893,0-16.78363c-4.6347-4.63464-12.14899-4.63464-16.78363,0 c-4.63464,4.6347-4.63464,12.14899,0,16.78363S347.12762,356.1084,351.76233,351.47375z M319.40576,319.11719 c4.3772-4.3772,4.3772-11.474,0-15.8512s-11.474-4.3772-15.8512,0s-4.3772,11.474,0,15.8512 S315.02856,323.49438,319.40576,319.11719z M287.04919,286.76062c4.11969-4.11969,4.11969-10.79907,0-14.91876 c-4.11969-4.11975-10.79907-4.11975-14.91876,0c-4.11975,4.11969-4.11975,10.79907,0,14.91876 C276.25012,290.88031,282.9295,290.88031,287.04919,286.76062z M808.44135,741.10352c-8.23938,8.23938-8.23938,21.59808,0,29.83752 c8.23944,8.23944,21.59814,8.23944,29.83759,0c8.23938-8.23944,8.23938-21.59814,0-29.83752 C830.03949,732.86407,816.68079,732.86407,808.44135,741.10352z M805.92236,738.58447c7.98193-7.98193,7.98193-20.92322,0-28.90515 s-20.92322-7.98193-28.90515,0s-7.98193,20.92322,0,28.90515S797.94043,746.56641,805.92236,738.58447z M773.5658,706.22791 c7.72443-7.72443,7.72443-20.24823,0-27.97272c-7.72449-7.72443-20.24829-7.72443-27.97272,0 c-7.72443,7.72449-7.72443,20.24829,0,27.97272S765.84131,713.95233,773.5658,706.22791z M741.20923,673.87134 c7.46692-7.46698,7.46692-19.5733,0-27.04028c-7.46698-7.46698-19.5733-7.46698-27.04028,0s-7.46698,19.5733,0,27.04028 S733.74225,681.33832,741.20923,673.87134z M708.85266,641.51477c7.20947-7.20947,7.20947-18.89838,0-26.10785 c-7.20953-7.20947-18.89838-7.20947-26.10785,0c-7.20953,7.20947-7.20953,18.89838,0,26.10785 C689.95428,648.72424,701.64313,648.72424,708.85266,641.51477z M651.32062,583.98279c-6.95197,6.95197-6.95197,18.22339,0,25.17542 c6.95203,6.95203,18.22345,6.95203,25.17548,0c6.95197-6.95203,6.95197-18.22345,0-25.17542 C669.54407,577.03076,658.27264,577.03076,651.32062,583.98279z M619.89648,576.80164c6.69452,6.69452,17.54852,6.69452,24.24304,0 s6.69452-17.54846,0-24.24298s-17.54852-6.69452-24.24304,0S613.20197,570.10712,619.89648,576.80164z M588.47235,521.13446 c-6.43701,6.43707-6.43701,16.8736,0,23.31061c6.43707,6.43707,16.87354,6.43707,23.31061,0 c6.43701-6.43701,6.43701-16.87354,0-23.31061C605.34589,514.69745,594.90942,514.69745,588.47235,521.13446z M557.04822,512.0885 c6.17957,6.17957,16.19861,6.17957,22.37817,0s6.17957-16.19861,0-22.37817s-16.19861-6.17957-22.37817,0 S550.86865,505.90894,557.04822,512.0885z M525.62408,479.73193c5.92206,5.92206,15.52362,5.92206,21.44574,0 c5.92206-5.92206,5.92206-15.52368,0-21.44574c-5.92212-5.92206-15.52368-5.92206-21.44574,0 C519.70197,464.20825,519.70197,473.80988,525.62408,479.73193z M494.19995,426.86206c-5.66461,5.66461-5.66461,14.84869,0,20.51331 c5.66455,5.66461,14.84869,5.66461,20.51331,0c5.66455-5.66461,5.66455-14.84869,0-20.51331 C509.04865,421.19745,499.8645,421.19745,494.19995,426.86206z M482.35669,415.0188c5.4071-5.4071,5.4071-14.17377,0-19.58087 s-14.17377-5.4071-19.58093,0c-5.4071,5.4071-5.4071,14.17377,0,19.58087C468.18292,420.4259,476.94958,420.4259,482.35669,415.0188 z M450.00012,382.66223c5.1496-5.14966,5.1496-13.49884,0-18.64844c-5.14966-5.14966-13.49884-5.14966-18.6485,0 c-5.1496,5.1496-5.1496,13.49878,0,18.64844C436.50128,387.81189,444.85046,387.81189,450.00012,382.66223z M417.64355,350.30566 c4.89215-4.89215,4.89215-12.82391,0-17.71606s-12.82391-4.89215-17.71606,0s-4.89215,12.82391,0,17.71606 S412.7514,355.19781,417.64355,350.30566z M385.28699,317.9491c4.63464-4.63464,4.63464-12.14893,0-16.78363 c-4.6347-4.63464-12.14899-4.63464-16.78363,0c-4.6347,4.6347-4.6347,12.14899,0,16.78363 C373.138,322.58374,380.65228,322.58374,385.28699,317.9491z M352.93042,285.59253c4.3772-4.3772,4.3772-11.474,0-15.8512 s-11.474-4.3772-15.8512,0s-4.3772,11.474,0,15.8512S348.55322,289.96973,352.93042,285.59253z M320.57385,253.23596 c4.11969-4.11969,4.11969-10.79907,0-14.91876s-10.79907-4.11969-14.91876,0c-4.11975,4.11969-4.11975,10.79907,0,14.91876 C309.77478,257.35565,316.45416,257.35565,320.57385,253.23596z M841.966,707.57886c-8.23938,8.23938-8.23938,21.59814,0,29.83752 c8.23944,8.23944,21.59814,8.23944,29.83759,0c8.23938-8.23938,8.23938-21.59814,0-29.83752 C863.56415,699.33942,850.20544,699.33942,841.966,707.57886z M839.44702,705.05981c7.98187-7.98193,7.98187-20.92316,0-28.90509 c-7.98193-7.98193-20.92322-7.98193-28.90515,0s-7.98193,20.92316,0,28.90509S831.46509,713.04175,839.44702,705.05981z M807.09045,672.70325c7.72443-7.72443,7.72443-20.24823,0-27.97272c-7.72449-7.72443-20.24829-7.72443-27.97272,0 c-7.72449,7.72449-7.72449,20.24829,0,27.97272C786.84216,680.42773,799.36597,680.42773,807.09045,672.70325z M774.73389,640.34668 c7.46692-7.46698,7.46692-19.5733,0-27.04028c-7.46698-7.46698-19.57336-7.46698-27.04028,0 c-7.46698,7.46698-7.46698,19.5733,0,27.04028C755.16052,647.81366,767.26691,647.81366,774.73389,640.34668z M742.37732,607.99011 c7.20947-7.20947,7.20947-18.89838,0-26.10785c-7.20953-7.20947-18.89838-7.20947-26.10791,0 c-7.20947,7.20947-7.20947,18.89838,0,26.10785C723.47894,615.19958,735.16779,615.19958,742.37732,607.99011z M684.84528,550.45813 c-6.95197,6.95203-6.95197,18.22345,0,25.17542c6.95203,6.95203,18.22345,6.95203,25.17548,0 c6.95197-6.95197,6.95197-18.22339,0-25.17542C703.06873,543.5061,691.7973,543.5061,684.84528,550.45813z M653.42114,519.034 c-6.69452,6.69452-6.69452,17.54846,0,24.24298s17.54852,6.69452,24.24304,0s6.69452-17.54846,0-24.24298 S660.11566,512.33948,653.42114,519.034z M621.99701,487.60986c-6.43707,6.43701-6.43707,16.87354,0,23.31055 c6.43701,6.43707,16.87354,6.43707,23.31061,0c6.43701-6.43701,6.43701-16.87354,0-23.31055 C638.87054,481.17279,628.43402,481.17279,621.99701,487.60986z M590.57288,478.56384c6.17957,6.17957,16.19861,6.17957,22.37817,0 c6.1795-6.17957,6.1795-16.19861,0-22.37817c-6.17957-6.17957-16.19861-6.17957-22.37817,0S584.39331,472.38428,590.57288,478.56384 z M559.14874,446.20728c5.92206,5.92206,15.52362,5.92206,21.44574,0c5.92206-5.92206,5.92206-15.52362,0-21.44574 c-5.92212-5.92206-15.52368-5.92206-21.44574,0C553.22662,430.68365,553.22662,440.28522,559.14874,446.20728z M527.72455,393.3374 c-5.66455,5.66461-5.66455,14.84869,0,20.51331c5.66461,5.66461,14.84875,5.66461,20.51337,0 c5.66455-5.66461,5.66455-14.84869,0-20.51331C542.5733,387.67279,533.38916,387.67279,527.72455,393.3374z M515.88135,381.49414 c5.4071-5.4071,5.4071-14.17377,0-19.58087c-5.40717-5.4071-14.17383-5.4071-19.58093,0s-5.4071,14.17377,0,19.58087 S510.47418,386.90125,515.88135,381.49414z M483.52478,349.13757c5.1496-5.1496,5.1496-13.49884,0-18.64844 c-5.14966-5.14966-13.49884-5.14966-18.6485,0c-5.1496,5.1496-5.1496,13.49884,0,18.64844 C470.02594,354.28723,478.37512,354.28723,483.52478,349.13757z M451.16821,316.78101c4.89215-4.89215,4.89215-12.82385,0-17.716 s-12.82391-4.89215-17.71606,0s-4.89215,12.82385,0,17.716S446.27606,321.67316,451.16821,316.78101z M418.81165,284.42444 c4.63464-4.63464,4.63464-12.14893,0-16.78363c-4.6347-4.63464-12.14899-4.63464-16.78363,0 c-4.6347,4.6347-4.6347,12.14899,0,16.78363C406.66266,289.05914,414.17694,289.05914,418.81165,284.42444z M386.45508,252.06787 c4.37714-4.3772,4.37714-11.474,0-15.8512c-4.3772-4.3772-11.47406-4.3772-15.8512,0c-4.3772,4.3772-4.3772,11.474,0,15.8512 C374.98102,256.44507,382.07788,256.44507,386.45508,252.06787z M354.09851,219.7113c4.11969-4.11969,4.11969-10.79907,0-14.91876 c-4.11975-4.11969-10.79907-4.11969-14.91882,0c-4.11969,4.11969-4.11969,10.79907,0,14.91876 C343.29944,223.83099,349.97876,223.83099,354.09851,219.7113z M875.49066,674.0542c-8.23944,8.23938-8.23944,21.59814,0,29.83752 c8.23944,8.23944,21.59814,8.23944,29.83752,0c8.23944-8.23938,8.23944-21.59814,0-29.83752 C897.08881,665.81476,883.7301,665.81476,875.49066,674.0542z M872.97162,671.53516c7.98193-7.98193,7.98193-20.92316,0-28.90509 s-20.92316-7.98193-28.90509,0s-7.98193,20.92316,0,28.90509S864.98969,679.51709,872.97162,671.53516z M840.61505,639.17859 c7.72449-7.72443,7.72449-20.24823,0-27.97266c-7.72443-7.72449-20.24823-7.72449-27.97266,0 c-7.72449,7.72443-7.72449,20.24823,0,27.97266C820.36682,646.90308,832.89062,646.90308,840.61505,639.17859z M808.25848,606.82202 c7.46698-7.46692,7.46698-19.5733,0-27.04028c-7.46692-7.46692-19.5733-7.46692-27.04028,0 c-7.46692,7.46698-7.46692,19.57336,0,27.04028C788.68518,614.289,800.79156,614.289,808.25848,606.82202z M775.90192,574.46545 c7.20953-7.20947,7.20953-18.89838,0-26.10785c-7.20947-7.20947-18.89832-7.20947-26.10785,0 c-7.20947,7.20947-7.20947,18.89838,0,26.10785C757.0036,581.67499,768.69244,581.67499,775.90192,574.46545z M718.36993,516.93347 c-6.95197,6.95203-6.95197,18.22345,0,25.17542c6.95203,6.95203,18.22345,6.95203,25.17542,0 c6.95203-6.95197,6.95203-18.22339,0-25.17542C736.59338,509.98145,725.32196,509.98145,718.36993,516.93347z M686.9458,485.50934 c-6.69452,6.69452-6.69452,17.54846,0,24.24298s17.54846,6.69452,24.24298,0s6.69452-17.54846,0-24.24298 S693.64032,478.81482,686.9458,485.50934z M655.52167,477.39575c6.43701,6.43707,16.87354,6.43707,23.31055,0 c6.43707-6.43701,6.43707-16.87354,0-23.31055c-6.43701-6.43707-16.87354-6.43707-23.31055,0 C649.08459,460.52222,649.08459,470.95874,655.52167,477.39575z M624.09753,445.03918c6.17957,6.17957,16.19861,6.17957,22.37811,0 c6.17957-6.17957,6.17957-16.19861,0-22.37811c-6.1795-6.17957-16.19855-6.17957-22.37811,0 C617.91797,428.84058,617.91797,438.85962,624.09753,445.03918z M592.67334,412.68262c5.92212,5.92212,15.52368,5.92212,21.44574,0 c5.92212-5.92206,5.92212-15.52362,0-21.44574c-5.92206-5.92206-15.52362-5.92206-21.44574,0 C586.75128,397.159,586.75128,406.76056,592.67334,412.68262z M561.24921,359.81274c-5.66455,5.66461-5.66455,14.84875,0,20.51331 c5.66461,5.66461,14.84875,5.66461,20.51331,0c5.66461-5.66455,5.66461-14.84869,0-20.51331 C576.09796,354.14813,566.91382,354.14813,561.24921,359.81274z M549.40594,347.96948c5.40717-5.4071,5.40717-14.17377,0-19.58087 c-5.4071-5.4071-14.17377-5.4071-19.58087,0s-5.4071,14.17377,0,19.58087S543.99884,353.37659,549.40594,347.96948z M517.04938,315.61292c5.14966-5.1496,5.14966-13.49884,0-18.64844c-5.1496-5.14966-13.49878-5.14966-18.64844,0 c-5.14966,5.1496-5.14966,13.49884,0,18.64844C503.5506,320.76257,511.89978,320.76257,517.04938,315.61292z M484.69281,283.25635 c4.89215-4.89215,4.89215-12.82385,0-17.716s-12.82385-4.89215-17.716,0s-4.89215,12.82385,0,17.716 S479.80066,288.1485,484.69281,283.25635z M452.33624,250.89978c4.6347-4.63464,4.6347-12.14893,0-16.78357 c-4.63464-4.6347-12.14893-4.6347-16.78357,0c-4.6347,4.63464-4.6347,12.14893,0,16.78357 C440.18732,255.53448,447.7016,255.53448,452.33624,250.89978z M419.97968,218.54321c4.3772-4.37714,4.3772-11.474,0-15.8512 c-4.37714-4.37714-11.474-4.37714-15.8512,0c-4.37714,4.3772-4.37714,11.47406,0,15.8512 C408.50568,222.92041,415.60254,222.92041,419.97968,218.54321z M387.62311,186.18665c4.11975-4.11969,4.11975-10.79907,0-14.91876 c-4.11969-4.11969-10.79901-4.11969-14.91876,0c-4.11969,4.11969-4.11969,10.79907,0,14.91876 C376.8241,190.3064,383.50342,190.3064,387.62311,186.18665z M909.01532,640.52954c-8.23944,8.23944-8.23944,21.59814,0,29.83752 c8.23938,8.23944,21.59814,8.23944,29.83752,0c8.23944-8.23938,8.23944-21.59808,0-29.83752 C930.61346,632.29016,917.2547,632.29016,909.01532,640.52954z M906.49628,638.0105c7.98193-7.98193,7.98193-20.92316,0-28.90509 s-20.92316-7.98193-28.90509,0s-7.98193,20.92316,0,28.90509S898.51434,645.99243,906.49628,638.0105z M874.13971,605.65393 c7.72449-7.72443,7.72449-20.24823,0-27.97266c-7.72443-7.72449-20.24823-7.72449-27.97266,0 c-7.72449,7.72443-7.72449,20.24823,0,27.97266C853.89148,613.37842,866.41528,613.37842,874.13971,605.65393z M841.78314,573.29736 c7.46698-7.46692,7.46698-19.5733,0-27.04022c-7.46698-7.46698-19.5733-7.46698-27.04028,0 c-7.46692,7.46692-7.46692,19.5733,0,27.04022C822.20984,580.76434,834.31616,580.76434,841.78314,573.29736z M809.42657,540.9408 c7.20947-7.20947,7.20947-18.89832,0-26.10785c-7.20947-7.20947-18.89838-7.20947-26.10785,0 c-7.20947,7.20953-7.20947,18.89838,0,26.10785C790.5282,548.15033,802.2171,548.15033,809.42657,540.9408z M751.89459,483.40881 c-6.95203,6.95203-6.95203,18.22345,0,25.17542c6.95203,6.95203,18.22345,6.95203,25.17542,0 c6.95203-6.95197,6.95203-18.22339,0-25.17542C770.11804,476.45685,758.84662,476.45685,751.89459,483.40881z M720.47046,451.98468 c-6.69452,6.69452-6.69452,17.54846,0,24.24298s17.54846,6.69452,24.24298,0s6.69452-17.54846,0-24.24298 S727.16498,445.29016,720.47046,451.98468z M689.04633,443.87109c6.43701,6.43707,16.87354,6.43707,23.31055,0 c6.43707-6.43701,6.43707-16.87354,0-23.31055c-6.43701-6.43707-16.87354-6.43707-23.31055,0 C682.60925,426.99756,682.60925,437.43408,689.04633,443.87109z M657.62213,411.51453c6.17957,6.17957,16.19861,6.17957,22.37817,0 c6.17957-6.1795,6.17957-16.19855,0-22.37811s-16.19861-6.17957-22.37817,0 C651.44263,395.31598,651.44263,405.33502,657.62213,411.51453z M647.64374,379.15796c5.92212-5.92206,5.92212-15.52362,0-21.44574 c-5.92206-5.92206-15.52362-5.92206-21.44574,0c-5.92206,5.92212-5.92206,15.52368,0,21.44574 C632.12012,385.08008,641.72168,385.08008,647.64374,379.15796z M594.77386,326.28809c-5.66461,5.66461-5.66461,14.84875,0,20.51331 c5.66461,5.66461,14.84875,5.66461,20.51331,0c5.66461-5.66455,5.66461-14.84869,0-20.51331 C609.62262,320.62354,600.43848,320.62354,594.77386,326.28809z M582.9306,314.44482c5.4071-5.4071,5.4071-14.17377,0-19.58087 s-14.17377-5.4071-19.58087,0s-5.4071,14.17377,0,19.58087C568.75684,319.85199,577.5235,319.85199,582.9306,314.44482z M550.57404,282.08826c5.14966-5.1496,5.14966-13.49878,0-18.64844c-5.1496-5.14966-13.49884-5.14966-18.64844,0 c-5.14966,5.14966-5.14966,13.49884,0,18.64844C537.0752,287.23792,545.42444,287.23792,550.57404,282.08826z M518.21747,249.73169 c4.89215-4.89215,4.89215-12.82385,0-17.716s-12.82385-4.89215-17.716,0s-4.89215,12.82385,0,17.716 S513.32532,254.62384,518.21747,249.73169z M485.8609,217.37518c4.6347-4.6347,4.6347-12.14899,0-16.78363 c-4.63464-4.6347-12.14893-4.6347-16.78363,0c-4.63464,4.63464-4.63464,12.14893,0,16.78363 C473.71198,222.00983,481.22626,222.00983,485.8609,217.37518z M453.50433,185.01862c4.3772-4.3772,4.3772-11.47406,0-15.85126 c-4.37714-4.37714-11.474-4.37714-15.8512,0c-4.3772,4.3772-4.3772,11.47406,0,15.85126 C442.03033,189.39575,449.1272,189.39575,453.50433,185.01862z M421.14777,152.66205c4.11975-4.11975,4.11975-10.79907,0-14.91882 c-4.11969-4.11969-10.79907-4.11969-14.91876,0c-4.11969,4.11975-4.11969,10.79907,0,14.91882 C410.34869,156.78174,417.02808,156.78174,421.14777,152.66205z M942.53998,607.00488c-8.23944,8.23944-8.23944,21.59814,0,29.83759 c8.23938,8.23938,21.59814,8.23938,29.83752,0c8.23944-8.23944,8.23944-21.59814,0-29.83759 C964.13812,598.7655,950.77936,598.7655,942.53998,607.00488z M940.02094,604.4859c7.98193-7.98193,7.98193-20.92322,0-28.90515 s-20.92322-7.98193-28.90509,0c-7.98193,7.98193-7.98193,20.92322,0,28.90515 C919.09772,612.46783,932.039,612.46783,940.02094,604.4859z M907.66437,572.12933c7.72443-7.72449,7.72443-20.24829,0-27.97272 c-7.72443-7.72449-20.24823-7.72449-27.97272,0c-7.72443,7.72443-7.72443,20.24823,0,27.97272 C887.41614,579.85376,899.93994,579.85376,907.66437,572.12933z M875.3078,539.77277c7.46698-7.46698,7.46698-19.57336,0-27.04028 c-7.46698-7.46698-19.5733-7.46698-27.04028,0c-7.46698,7.46692-7.46698,19.5733,0,27.04028 C855.7345,547.23969,867.84082,547.23969,875.3078,539.77277z M842.95123,507.4162c7.20947-7.20953,7.20947-18.89838,0-26.10791 c-7.20947-7.20947-18.89838-7.20947-26.10785,0c-7.20947,7.20953-7.20947,18.89838,0,26.10791 C824.05286,514.62567,835.74176,514.62567,842.95123,507.4162z M785.41925,449.88416c-6.95203,6.95203-6.95203,18.22345,0,25.17548 c6.95197,6.95197,18.22345,6.95197,25.17542,0c6.95203-6.95203,6.95203-18.22345,0-25.17548 C803.6427,442.93219,792.37122,442.93219,785.41925,449.88416z M753.99512,418.46002c-6.69452,6.69452-6.69452,17.54852,0,24.24304 s17.54846,6.69452,24.24298,0s6.69452-17.54852,0-24.24304S760.68964,411.7655,753.99512,418.46002z M722.57098,410.3465 c6.43701,6.43701,16.87354,6.43701,23.31055,0c6.43707-6.43707,6.43707-16.8736,0-23.31061 c-6.43701-6.43701-16.87354-6.43701-23.31055,0C716.13391,393.4729,716.13391,403.90942,722.57098,410.3465z M691.14679,355.61176 c-6.17957,6.17957-6.17957,16.19861,0,22.37817c6.17957,6.1795,16.19861,6.1795,22.37817,0 c6.17957-6.17957,6.17957-16.19861,0-22.37817S697.32635,349.43219,691.14679,355.61176z M681.1684,345.63336 c5.92206-5.92212,5.92206-15.52368,0-21.44574c-5.92206-5.92212-15.52368-5.92212-21.44574,0 c-5.92206,5.92206-5.92206,15.52362,0,21.44574C665.64471,351.55542,675.24634,351.55542,681.1684,345.63336z M648.81183,313.27679 c5.66461-5.66461,5.66461-14.84875,0-20.51337c-5.66461-5.66455-14.84869-5.66455-20.51331,0 c-5.66461,5.66461-5.66461,14.84875,0,20.51337C633.96313,318.94135,643.14722,318.94135,648.81183,313.27679z M616.45526,280.92023 c5.4071-5.40717,5.4071-14.17383,0-19.58093s-14.17377-5.4071-19.58087,0s-5.4071,14.17377,0,19.58093 C602.28149,286.32733,611.04816,286.32733,616.45526,280.92023z M584.09869,248.56366c5.14966-5.14966,5.14966-13.49884,0-18.6485 c-5.1496-5.1496-13.49884-5.1496-18.64844,0c-5.14966,5.14966-5.14966,13.49884,0,18.6485 C570.59985,253.71326,578.9491,253.71326,584.09869,248.56366z M551.74213,216.20709c4.89215-4.89215,4.89215-12.82391,0-17.71606 s-12.82385-4.89215-17.716,0s-4.89215,12.82391,0,17.71606S546.84998,221.09924,551.74213,216.20709z M519.38556,183.85052 c4.6347-4.6347,4.6347-12.14899,0-16.78363c-4.63464-4.6347-12.14893-4.6347-16.78363,0 c-4.63464,4.63464-4.63464,12.14893,0,16.78363C507.23663,188.48517,514.75092,188.48517,519.38556,183.85052z M487.02899,151.49396 c4.3772-4.3772,4.3772-11.47406,0-15.8512c-4.3772-4.3772-11.474-4.3772-15.8512,0c-4.3772,4.37714-4.3772,11.474,0,15.8512 C475.55499,155.87109,482.65179,155.87109,487.02899,151.49396z M454.67242,119.13739c4.11969-4.11975,4.11969-10.79907,0-14.91882 c-4.11969-4.11969-10.79907-4.11969-14.91876,0c-4.11969,4.11975-4.11969,10.79907,0,14.91882 C443.87335,123.25708,450.55273,123.25708,454.67242,119.13739z M976.06464,573.48022c-8.23944,8.23944-8.23944,21.59814,0,29.83759 c8.23938,8.23938,21.59808,8.23938,29.83752,0c8.23938-8.23944,8.23938-21.59814,0-29.83759 C997.66272,565.24084,984.30402,565.24084,976.06464,573.48022z M973.54559,570.96124c7.98193-7.98193,7.98193-20.92322,0-28.90515 s-20.92322-7.98193-28.90515,0s-7.98193,20.92322,0,28.90515S965.56366,578.94318,973.54559,570.96124z M941.18903,538.60468 c7.72443-7.72449,7.72443-20.24829,0-27.97272s-20.24823-7.72443-27.97272,0c-7.72443,7.72443-7.72443,20.24823,0,27.97272 C920.9408,546.3291,933.4646,546.3291,941.18903,538.60468z M908.83246,506.24811c7.46698-7.46698,7.46698-19.5733,0-27.04028 s-19.5733-7.46698-27.04028,0s-7.46698,19.5733,0,27.04028C889.25916,513.71503,901.36548,513.71503,908.83246,506.24811z M850.36804,447.78369c-7.20947,7.20947-7.20947,18.89838,0,26.10785s18.89838,7.20947,26.10785,0s7.20947-18.89838,0-26.10785 C869.26642,440.57416,857.57751,440.57416,850.36804,447.78369z M818.94391,416.3595c-6.95203,6.95203-6.95203,18.22345,0,25.17548 c6.95197,6.95197,18.22339,6.95197,25.17542,0c6.95203-6.95203,6.95203-18.22345,0-25.17548 C837.1673,409.40753,825.89587,409.40753,818.94391,416.3595z M787.51978,384.93536c-6.69452,6.69452-6.69452,17.54852,0,24.24304 s17.54846,6.69452,24.24298,0s6.69452-17.54852,0-24.24304S794.21429,378.24084,787.51978,384.93536z M756.09558,376.82184 c6.43707,6.43701,16.8736,6.43701,23.31061,0c6.43701-6.43707,6.43701-16.87354,0-23.31061 c-6.43701-6.43701-16.87354-6.43701-23.31061,0C749.65857,359.9483,749.65857,370.38477,756.09558,376.82184z M724.67145,322.0871 c-6.17957,6.17957-6.17957,16.19861,0,22.37817s16.19861,6.17957,22.37817,0s6.17957-16.19861,0-22.37817 S730.85101,315.90753,724.67145,322.0871z M714.69305,312.1087c5.92206-5.92212,5.92206-15.52368,0-21.44574 c-5.92206-5.92212-15.52368-5.92212-21.44574,0c-5.92206,5.92206-5.92206,15.52362,0,21.44574 C699.16937,318.03076,708.771,318.03076,714.69305,312.1087z M682.33649,279.75214c5.66461-5.66461,5.66461-14.84875,0-20.51331 c-5.66461-5.66461-14.84869-5.66461-20.51331,0c-5.66461,5.66455-5.66461,14.84869,0,20.51331 C667.48779,285.41669,676.67188,285.41669,682.33649,279.75214z M649.97992,247.39557c5.4071-5.4071,5.4071-14.17377,0-19.58093 c-5.4071-5.4071-14.17377-5.4071-19.58087,0c-5.4071,5.40717-5.4071,14.17383,0,19.58093S644.57281,252.80267,649.97992,247.39557z M617.62335,215.039c5.14966-5.14966,5.14966-13.49884,0-18.6485c-5.14966-5.1496-13.49884-5.1496-18.64844,0 c-5.14966,5.14966-5.14966,13.49884,0,18.6485C604.12451,220.1886,612.47369,220.1886,617.62335,215.039z M585.26678,182.68243 c4.89215-4.89215,4.89215-12.82391,0-17.71606s-12.82391-4.89215-17.71606,0s-4.89215,12.82391,0,17.71606 S580.37463,187.57458,585.26678,182.68243z M552.91022,150.32587c4.63464-4.6347,4.63464-12.14899,0-16.78363 s-12.14893-4.63464-16.78363,0c-4.63464,4.63464-4.63464,12.14893,0,16.78363 C540.76129,154.96051,548.27557,154.96051,552.91022,150.32587z M520.55365,117.9693c4.3772-4.3772,4.3772-11.474,0-15.8512 s-11.474-4.3772-15.8512,0s-4.3772,11.474,0,15.8512S516.17645,122.3465,520.55365,117.9693z M488.19708,85.61273 c4.11969-4.11969,4.11969-10.79907,0-14.91876c-4.11969-4.11975-10.79907-4.11975-14.91876,0 c-4.11969,4.11969-4.11969,10.79907,0,14.91876S484.07739,89.73242,488.19708,85.61273z M1009.58923,539.95557 c-8.23938,8.23944-8.23938,21.59814,0,29.83759c8.23944,8.23938,21.59814,8.23938,29.83752,0 c8.2395-8.23944,8.2395-21.59814,0-29.83759C1031.18738,531.71619,1017.82867,531.71619,1009.58923,539.95557z M1007.07025,537.43658c7.98193-7.98193,7.98193-20.92322,0-28.90515s-20.92322-7.98193-28.90515,0s-7.98193,20.92322,0,28.90515 S999.08832,545.41852,1007.07025,537.43658z M974.71368,505.08002c7.72443-7.72449,7.72443-20.24829,0-27.97272 c-7.72449-7.72443-20.24829-7.72443-27.97272,0s-7.72443,20.24823,0,27.97272 C954.46539,512.80444,966.9892,512.80444,974.71368,505.08002z M915.31683,445.68317c-7.46698,7.46698-7.46698,19.5733,0,27.04028 s19.5733,7.46698,27.04028,0s7.46698-19.5733,0-27.04028S922.78381,438.21619,915.31683,445.68317z M883.8927,414.25903 c-7.20947,7.20947-7.20947,18.89838,0,26.10785s18.89838,7.20947,26.10785,0s7.20947-18.89838,0-26.10785 S891.10217,407.04956,883.8927,414.25903z M852.46857,382.8349c-6.95203,6.95197-6.95203,18.22339,0,25.17542 c6.95197,6.95197,18.22339,6.95197,25.17542,0c6.95197-6.95203,6.95197-18.22345,0-25.17542 C870.69196,375.88287,859.42053,375.88287,852.46857,382.8349z M821.04437,351.41071c-6.69452,6.69452-6.69452,17.54852,0,24.24304 s17.54852,6.69452,24.24304,0s6.69452-17.54852,0-24.24304S827.73889,344.71619,821.04437,351.41071z M789.62024,319.98657 c-6.43701,6.43707-6.43701,16.87354,0,23.31061c6.43707,6.43701,16.87354,6.43701,23.31061,0 c6.43701-6.43707,6.43701-16.87354,0-23.31061C806.49377,313.54956,796.05731,313.54956,789.62024,319.98657z M758.19611,288.56244 c-6.17957,6.17957-6.17957,16.19861,0,22.37817s16.19861,6.17957,22.37817,0s6.17957-16.19861,0-22.37817 S764.37567,282.38287,758.19611,288.56244z M748.21771,278.58405c5.92206-5.92206,5.92206-15.52368,0-21.44574 s-15.52368-5.92206-21.44574,0s-5.92206,15.52368,0,21.44574S742.29565,284.5061,748.21771,278.58405z M715.86115,246.22748 c5.66461-5.66461,5.66461-14.84875,0-20.51331c-5.66461-5.66461-14.84875-5.66461-20.51331,0 c-5.66461,5.66455-5.66461,14.84869,0,20.51331C701.01239,251.89209,710.19653,251.89209,715.86115,246.22748z M683.50458,213.87091 c5.4071-5.4071,5.4071-14.17377,0-19.58087c-5.4071-5.40717-14.17377-5.40717-19.58087,0 c-5.40717,5.4071-5.40717,14.17377,0,19.58087C669.33081,219.27802,678.09747,219.27802,683.50458,213.87091z M651.14801,181.51434 c5.1496-5.14966,5.1496-13.49884,0-18.6485c-5.14966-5.1496-13.49884-5.1496-18.6485,0c-5.1496,5.14966-5.1496,13.49884,0,18.6485 C637.64917,186.66394,645.99835,186.66394,651.14801,181.51434z M618.79144,149.15778c4.89215-4.89215,4.89215-12.82391,0-17.71606 s-12.82391-4.89215-17.71606,0s-4.89215,12.82391,0,17.71606S613.89929,154.04993,618.79144,149.15778z M586.43488,116.80121 c4.63464-4.63464,4.63464-12.14899,0-16.78363c-4.6347-4.63464-12.14899-4.63464-16.78363,0s-4.63464,12.14899,0,16.78363 S581.80017,121.43585,586.43488,116.80121z M554.07831,84.44464c4.3772-4.3772,4.3772-11.474,0-15.8512s-11.474-4.3772-15.8512,0 s-4.3772,11.474,0,15.8512S549.70111,88.82184,554.07831,84.44464z M521.72174,52.08807 c4.11969-4.11969,4.11969-10.79907,0-14.91876c-4.11969-4.11975-10.79907-4.11975-14.91876,0 c-4.11975,4.11969-4.11975,10.79907,0,14.91876C510.92267,56.20776,517.60205,56.20776,521.72174,52.08807z M1072.95142,506.43097 c-8.23938-8.23944-21.59814-8.23944-29.83752,0c-8.23938,8.23938-8.23938,21.59808,0,29.83752 c8.23938,8.23938,21.59814,8.23938,29.83752,0C1081.19092,528.02905,1081.19092,514.67035,1072.95142,506.43097z M1011.68976,503.91193c7.98193,7.98193,20.92328,7.98193,28.90521,0s7.98193-20.92322,0-28.90515s-20.92328-7.98193-28.90521,0 S1003.70782,495.92999,1011.68976,503.91193z M980.26562,471.55536c7.72443,7.72443,20.24823,7.72443,27.97272,0 c7.72443-7.72443,7.72443-20.24823,0-27.97272c-7.72449-7.72443-20.24829-7.72443-27.97272,0 C972.5412,451.30713,972.5412,463.83093,980.26562,471.55536z M948.84149,439.19879c7.46698,7.46698,19.5733,7.46698,27.04028,0 c7.46692-7.46698,7.46692-19.5733,0-27.04028c-7.46698-7.46698-19.5733-7.46698-27.04028,0S941.37451,431.73181,948.84149,439.19879 z M917.41736,406.84222c7.20947,7.20947,18.89838,7.20947,26.10785,0s7.20947-18.89838,0-26.10785s-18.89838-7.20947-26.10785,0 C910.20782,387.94385,910.20782,399.63275,917.41736,406.84222z M885.99316,374.48566c6.95203,6.95203,18.22345,6.95203,25.17548,0 c6.95197-6.95203,6.95197-18.22345,0-25.17542c-6.95203-6.95203-18.22345-6.95203-25.17548,0 C879.0412,356.26221,879.0412,367.53363,885.99316,374.48566z M854.56903,342.12909c6.69452,6.69452,17.54852,6.69452,24.24304,0 s6.69452-17.54846,0-24.24298s-17.54852-6.69452-24.24304,0S847.87451,335.43457,854.56903,342.12909z M823.1449,309.77252 c6.43707,6.43701,16.87354,6.43701,23.31061,0c6.43701-6.43701,6.43701-16.87354,0-23.31061 c-6.43707-6.43701-16.87354-6.43701-23.31061,0C816.70789,292.89899,816.70789,303.33551,823.1449,309.77252z M814.09894,277.41595 c6.17957-6.17957,6.17957-16.19861,0-22.37817s-16.19861-6.17957-22.37817,0s-6.17957,16.19861,0,22.37817 S807.91937,283.59552,814.09894,277.41595z M781.74237,245.05939c5.92206-5.92206,5.92206-15.52368,0-21.44574 c-5.92212-5.92206-15.52368-5.92206-21.44574,0c-5.92212,5.92206-5.92212,15.52368,0,21.44574 C766.21869,250.98145,775.82025,250.98145,781.74237,245.05939z M749.3858,212.70282c5.66455-5.66461,5.66455-14.84869,0-20.51331 c-5.66461-5.66461-14.84875-5.66461-20.51331,0c-5.66461,5.66461-5.66461,14.84869,0,20.51331 C734.53705,218.36743,743.72119,218.36743,749.3858,212.70282z M717.02924,180.34625c5.4071-5.4071,5.4071-14.17377,0-19.58087 s-14.17377-5.4071-19.58093,0c-5.4071,5.4071-5.4071,14.17377,0,19.58087 C702.85547,185.75336,711.62213,185.75336,717.02924,180.34625z M684.67267,147.98969c5.1496-5.14966,5.1496-13.49884,0-18.64844 c-5.14966-5.14966-13.49884-5.14966-18.6485,0c-5.1496,5.1496-5.1496,13.49878,0,18.64844 C671.17383,153.13934,679.52301,153.13934,684.67267,147.98969z M652.3161,115.63312c4.89215-4.89215,4.89215-12.82391,0-17.71606 s-12.82391-4.89215-17.71606,0s-4.89215,12.82391,0,17.71606S647.42395,120.52527,652.3161,115.63312z M619.95953,83.27655 c4.63464-4.63464,4.63464-12.14893,0-16.78363c-4.6347-4.63464-12.14899-4.63464-16.78363,0 c-4.63464,4.6347-4.63464,12.14899,0,16.78363S615.32483,87.91119,619.95953,83.27655z M587.60297,50.91998 c4.3772-4.3772,4.3772-11.474,0-15.8512s-11.474-4.3772-15.8512,0s-4.3772,11.474,0,15.8512S583.22577,55.29718,587.60297,50.91998z M555.2464,18.56342c4.11969-4.11969,4.11969-10.79907,0-14.91876s-10.79907-4.11969-14.91876,0 c-4.11975,4.11969-4.11975,10.79907,0,14.91876C544.44733,22.68311,551.12671,22.68311,555.2464,18.56342z" fill="#f3f4f4"/></g></svg>